<svg xmlns="http://www.w3.org/2000/svg" width="38" height="34" viewBox="0 0 38 34" class="h-7 w-7"><g fill="none" fill-rule="evenodd"><path d="M0 0h38v34H0z"></path><path fill="#08BBEE" d="M5.213 20.363a7.25 7.25 0 0 0 3.634-.251c-3.548-.578-6.262-3.748-6.262-7.572q0-.09.002-.178a7.2 7.2 0 0 0 3.551.995c-2.13-1.348-3.553-3.773-3.553-6.542a7.8 7.8 0 0 1 1.05-3.931c3.78 4.663 9.323 7.75 15.572 8.17a8 8 0 0 1-.175-1.683c0-4.347 3.415-7.871 7.629-7.871 2.201 0 4.184.962 5.577 2.5a11.8 11.8 0 0 0 4.735-1.898A7.4 7.4 0 0 1 33.728 6.4 12.5 12.5 0 0 0 38 5.19a12.9 12.9 0 0 1-3.712 4.008l.002.173-.004.896c0 12.279-9.647 22.233-21.549 22.233-4.329 0-8.36-1.317-11.737-3.584q.9.108 1.83.109c3.585 0 6.89-1.24 9.532-3.326-3.384 0-6.193-2.242-7.149-5.336"></path></g></svg>