<svg xmlns="http://www.w3.org/2000/svg" width="20" height="15" viewBox="0 0 20 15" class="fill-current"><path fill-rule="evenodd" fill="#CBD5E1" d="M2.671 9.124a4.06 4.06 0 0 0 1.873-.118c-1.829-.274-3.227-1.774-3.227-3.583V5.34a4 4 0 0 0 1.83.47c-1.097-.637-1.83-1.785-1.83-3.094 0-.68.197-1.316.541-1.86C3.805 3.06 6.662 4.522 9.882 4.72a3.6 3.6 0 0 1-.09-.796C9.792 1.867 11.552.2 13.723.2c1.135 0 2.157.455 2.874 1.183a6.4 6.4 0 0 0 2.44-.898 3.55 3.55 0 0 1-1.672 2.033 6.9 6.9 0 0 0 2.202-.572 6.3 6.3 0 0 1-1.913 1.896v.082l-.001.424c0 5.81-4.972 10.519-11.105 10.519A11.5 11.5 0 0 1 .5 13.17q.465.051.943.051a8.35 8.35 0 0 0 4.912-1.573c-1.744 0-3.191-1.06-3.684-2.525"></path></svg>